<?xml version="1.0" standalone="no"?>
<!DOCTYPE svg PUBLIC "-//W3C//DTD SVG 20010904//EN"
 "http://www.w3.org/TR/2001/REC-SVG-20010904/DTD/svg10.dtd">
<svg version="1.0" xmlns="http://www.w3.org/2000/svg"
 width="720.000000pt" height="720.000000pt" viewBox="0 0 720.000000 720.000000"
 preserveAspectRatio="xMidYMid meet">
<metadata>
Created by potrace 1.11, written by Peter Selinger 2001-2013
</metadata>
<g transform="translate(0.000000,720.000000) scale(0.100000,-0.100000)"
fill="#000000" stroke="none">
<path d="M1905 7181 c-48 -22 -69 -44 -90 -94 -13 -32 -15 -250 -15 -1942 l0
-1905 -827 0 c-792 0 -830 -1 -870 -19 -26 -12 -52 -35 -70 -62 l-28 -43 -3
-393 c-2 -249 1 -407 8 -432 5 -21 22 -52 38 -69 56 -65 18 -62 927 -62 l825
0 0 -540 0 -540 -827 0 c-792 0 -830 -1 -870 -19 -26 -12 -52 -35 -70 -62
l-28 -43 -3 -393 c-2 -249 1 -407 8 -432 13 -49 55 -96 102 -116 33 -13 413
-15 3490 -15 3371 0 3454 1 3495 19 26 12 52 35 70 62 l28 43 3 395 c3 412 1
444 -39 495 -18 23 -79 62 -101 65 -5 1 -946 1 -2093 1 l-2085 0 0 1260 0
1260 2098 2 c1988 3 2099 4 2130 21 17 10 44 36 60 59 l27 42 3 1654 c1 1092
-1 1667 -8 1692 -12 44 -52 92 -96 114 -47 23 -805 24 -861 1 -50 -21 -72 -42
-94 -90 -18 -38 -19 -97 -19 -1227 l0 -1188 -540 0 -540 0 0 1185 c0 1300 3
1226 -59 1286 -16 15 -47 32 -68 38 -24 7 -181 11 -423 11 -352 0 -388 -2
-425 -19 -48 -22 -69 -44 -90 -94 -13 -32 -15 -178 -15 -1222 l0 -1185 -540 0
-540 0 0 1183 c-1 921 -4 1190 -13 1217 -17 47 -44 78 -88 100 -34 18 -65 19
-435 19 -367 1 -402 -1 -439 -18z"/>
</g>
</svg>
