<?xml version="1.0" standalone="no"?>
<!DOCTYPE svg PUBLIC "-//W3C//DTD SVG 20010904//EN"
 "http://www.w3.org/TR/2001/REC-SVG-20010904/DTD/svg10.dtd">
<svg version="1.0" xmlns="http://www.w3.org/2000/svg"
 width="400.000000pt" height="400.000000pt" viewBox="0 0 400.000000 400.000000"
 preserveAspectRatio="xMidYMid meet">
<metadata>
Created by potrace 1.11, written by Peter Selinger 2001-2013
</metadata>
<g transform="translate(0.000000,400.000000) scale(0.100000,-0.100000)"
fill="#000000" stroke="none">
<path d="M1515 2986 c-18 -13 -19 -37 -19 -545 l-1 -531 -231 0 c-211 0 -232
-2 -247 -18 -14 -15 -17 -41 -17 -134 0 -99 3 -117 18 -131 16 -15 49 -17 248
-17 l230 0 0 -148 1 -149 -230 0 c-197 0 -231 -2 -248 -16 -17 -15 -19 -31
-19 -130 0 -82 4 -119 14 -133 14 -19 36 -19 963 -19 521 -1 958 1 969 3 33 6
41 38 40 154 -1 86 -5 111 -18 125 -15 15 -71 16 -595 17 l-578 1 0 343 c0
335 0 343 20 347 11 2 268 3 570 2 322 -2 559 1 572 7 15 6 24 20 28 40 2 17
3 231 2 475 -3 421 -4 444 -22 457 -25 19 -234 20 -259 1 -16 -11 -17 -41 -18
-344 0 -238 -4 -333 -12 -335 -9 -3 -257 -2 -278 1 -5 1 -8 149 -8 329 0 306
-1 330 -18 345 -15 14 -41 17 -134 17 -99 0 -117 -3 -131 -18 -15 -17 -17 -56
-17 -348 l0 -329 -147 0 -148 1 0 333 c-1 315 -2 334 -20 347 -26 20 -233 20
-260 0z"/>
</g>
</svg>
